<?xml version="1.0" encoding="UTF-8" standalone="no"?>
<!-- Created with Inkscape (http://www.inkscape.org/) -->

<svg
   width="60.822144mm"
   height="21.791485mm"
   viewBox="0 0 60.822144 21.791485"
   version="1.1"
   id="svg1"
   inkscape:export-filename="images/RoundHead/Hair/unkempt_mohawk.svg"
   inkscape:export-xdpi="96"
   inkscape:export-ydpi="96"
   inkscape:version="1.4.2 (ebf0e940, 2025-05-08)"
   sodipodi:docname="drawing_Base.svg"
   xml:space="preserve"
   xmlns:inkscape="http://www.inkscape.org/namespaces/inkscape"
   xmlns:sodipodi="http://sodipodi.sourceforge.net/DTD/sodipodi-0.dtd"
   xmlns="http://www.w3.org/2000/svg"
   xmlns:svg="http://www.w3.org/2000/svg"><sodipodi:namedview
     id="namedview1"
     pagecolor="#ffffff"
     bordercolor="#000000"
     borderopacity="0.25"
     inkscape:showpageshadow="2"
     inkscape:pageopacity="0.0"
     inkscape:pagecheckerboard="0"
     inkscape:deskcolor="#d1d1d1"
     inkscape:document-units="mm"
     inkscape:export-bgcolor="#ffffff00"
     showguides="false"
     inkscape:zoom="2.352774"
     inkscape:cx="274.14448"
     inkscape:cy="151.73578"
     inkscape:window-width="1512"
     inkscape:window-height="945"
     inkscape:window-x="0"
     inkscape:window-y="37"
     inkscape:window-maximized="0"
     inkscape:current-layer="layer1"
     showgrid="false"><inkscape:page
       x="0"
       y="0"
       width="60.822144"
       height="21.791485"
       id="page2"
       margin="0"
       bleed="0" /></sodipodi:namedview><defs
     id="defs1" /><g
     inkscape:label="Layer 1"
     inkscape:groupmode="layer"
     id="layer1"
     transform="translate(-102.15126,-15.780805)"><path
       id="path17"
       style="fill:#999999;stroke:#000000;stroke-width:0.799999;stroke-opacity:1"
       d="m 118.85259,16.180805 a 6.8990712,4.2638607 0 0 0 -6.89881,4.263824 6.8990712,4.2638607 0 0 0 0.24857,1.114144 7.6066685,4.7011795 0 0 0 -2.64635,0.391707 4.0452008,4.0452008 0 0 0 -2.95951,-1.28726 4.0452008,4.0452008 0 0 0 -4.04523,4.045231 4.0452008,4.0452008 0 0 0 3.30471,3.977018 4.5918498,4.5918498 0 0 0 -1.33687,3.239079 4.5918498,4.5918498 0 0 0 4.59196,4.591451 4.5918498,4.5918498 0 0 0 4.30879,-3.004984 7.5984182,7.5984182 0 0 0 5.69474,2.567802 7.5984182,7.5984182 0 0 0 6.65179,-3.925859 6.6691151,3.3345575 0 0 0 4.22661,0.755509 6.6691151,3.3345575 0 0 0 5.45032,-1.41335 5.1931634,5.1931634 0 0 0 4.44417,2.506307 5.1931634,5.1931634 0 0 0 3.68401,-1.53324 6.7784448,6.7784448 0 0 0 1.95802,0.869715 5.8376756,3.607882 0 0 0 -0.0114,0.226342 5.8376756,3.607882 0 0 0 5.83737,3.608049 5.8376756,3.607882 0 0 0 4.44314,-1.267623 5.4118228,5.4118228 0 0 0 1.36271,0.17415 5.4118228,5.4118228 0 0 0 5.41207,-5.412073 5.4118228,5.4118228 0 0 0 -4.65088,-5.357813 3.4985523,3.4985523 0 0 0 0.27751,-1.365808 3.4985523,3.4985523 0 0 0 -3.4985,-3.498494 3.4985523,3.4985523 0 0 0 -2.79724,1.397331 6.7784448,6.7784448 0 0 0 -4.63693,-1.834514 6.7784448,6.7784448 0 0 0 -3.04529,0.722437 2.5692492,2.5692492 0 0 0 -2.14819,-1.15962 2.5692492,2.5692492 0 0 0 -1.64331,0.593762 6.8331099,6.8331099 0 0 0 -5.24412,-2.452564 6.8331099,6.8331099 0 0 0 -2.7094,0.560173 7.2704287,7.2704287 0 0 0 -4.61574,-1.653646 7.2704287,7.2704287 0 0 0 -3.76876,1.053166 6.8990712,4.2638607 0 0 0 -5.23999,-1.490349 z" /></g></svg>
