<?xml version="1.0" encoding="UTF-8" standalone="no"?>
<!-- Created with Inkscape (http://www.inkscape.org/) -->

<svg
   width="63.96273mm"
   height="50.99839mm"
   viewBox="0 0 63.96273 50.99839"
   version="1.1"
   id="svg1"
   inkscape:export-filename="images/RoundHead/Hair/unkempt_mohawk.svg"
   inkscape:export-xdpi="96"
   inkscape:export-ydpi="96"
   inkscape:version="1.4.2 (ebf0e940, 2025-05-08)"
   sodipodi:docname="drawing_Base.svg"
   xml:space="preserve"
   xmlns:inkscape="http://www.inkscape.org/namespaces/inkscape"
   xmlns:sodipodi="http://sodipodi.sourceforge.net/DTD/sodipodi-0.dtd"
   xmlns="http://www.w3.org/2000/svg"
   xmlns:svg="http://www.w3.org/2000/svg"><sodipodi:namedview
     id="namedview1"
     pagecolor="#ffffff"
     bordercolor="#000000"
     borderopacity="0.25"
     inkscape:showpageshadow="2"
     inkscape:pageopacity="0.0"
     inkscape:pagecheckerboard="0"
     inkscape:deskcolor="#d1d1d1"
     inkscape:document-units="mm"
     inkscape:export-bgcolor="#ffffff00"
     showguides="false"
     inkscape:zoom="2.7290665"
     inkscape:cx="159.21195"
     inkscape:cy="151.70022"
     inkscape:window-width="1512"
     inkscape:window-height="945"
     inkscape:window-x="0"
     inkscape:window-y="37"
     inkscape:window-maximized="0"
     inkscape:current-layer="layer1"
     showgrid="false"><inkscape:page
       x="0"
       y="0"
       width="63.96273"
       height="50.99839"
       id="page2"
       margin="0"
       bleed="0" /></sodipodi:namedview><defs
     id="defs1"><inkscape:path-effect
       effect="powerclip"
       message=""
       id="path-effect11"
       is_visible="true"
       lpeversion="1"
       inverse="true"
       flatten="false"
       hide_clip="false" /><clipPath
       clipPathUnits="userSpaceOnUse"
       id="clipPath10"><circle
         style="display:none;fill:#ececec;stroke:#000000;stroke-width:0.759616;stroke-dasharray:none;stroke-opacity:1"
         id="circle11"
         cx="50"
         cy="50.359505"
         inkscape:transform-center-x="21.304088"
         inkscape:transform-center-y="-25.05978"
         r="34.573082"
         d="M 84.573082,50.359505 A 34.573082,34.573082 0 0 1 50,84.932587 34.573082,34.573082 0 0 1 15.426918,50.359505 34.573082,34.573082 0 0 1 50,15.786423 34.573082,34.573082 0 0 1 84.573082,50.359505 Z" /><path
         id="lpe_path-effect11"
         style="fill:#ececec;stroke:#000000;stroke-width:0.759616;stroke-dasharray:none;stroke-opacity:1"
         class="powerclip"
         d="M 8.576848,-3.4293012 H 82.539581 V 57.569084 H 8.576848 Z M 84.573082,50.359505 A 34.573082,34.573082 0 0 0 50,15.786423 34.573082,34.573082 0 0 0 15.426918,50.359505 34.573082,34.573082 0 0 0 50,84.932587 34.573082,34.573082 0 0 0 84.573082,50.359505 Z" /></clipPath></defs><g
     inkscape:label="Layer 1"
     inkscape:groupmode="layer"
     id="layer1"
     transform="translate(-124.09015,-19.666442)"><path
       style="fill:#999999;stroke:#000000;stroke-width:0.799999;stroke-opacity:1"
       d="M 21.902172,29.61859 14.177265,8.1141171 32.7588,10.723883 27.226095,2.7901941 51.131554,9.0536331 49.670083,2.2682411 69.191133,11.245837 68.877962,5.3999611 c 0,0 4.342941,4.8067339 6.24326,8.1436639 3.166972,5.561151 1.272867,18.267168 1.272867,18.267168 l 0.730734,20.043005 -52.404104,0.313171 z"
       id="path7"
       sodipodi:nodetypes="ccccccccscccc"
       clip-path="url(#clipPath10)"
       inkscape:path-effect="#path-effect11"
       inkscape:original-d="M 21.902172,29.61859 14.177265,8.1141171 32.7588,10.723883 27.226095,2.7901941 51.131554,9.0536331 49.670083,2.2682411 69.191133,11.245837 68.877962,5.3999611 c 0,0 4.342941,4.8067339 6.24326,8.1436639 3.166972,5.561151 1.272867,18.267168 1.272867,18.267168 l 0.730734,20.043005 -52.404104,0.313171 z"
       transform="translate(110.5133,18.095745)" /></g></svg>
