<?xml version="1.0" encoding="UTF-8" standalone="no"?>
<!-- Created with Inkscape (http://www.inkscape.org/) -->

<svg
   width="38.637589mm"
   height="17.756248mm"
   viewBox="0 0 38.637589 17.756248"
   version="1.1"
   id="svg1"
   inkscape:export-filename="images/RoundHead/Noses/small_rounded.svg"
   inkscape:export-xdpi="96"
   inkscape:export-ydpi="96"
   inkscape:version="1.4.2 (ebf0e940, 2025-05-08)"
   sodipodi:docname="drawing_Base.svg"
   xml:space="preserve"
   xmlns:inkscape="http://www.inkscape.org/namespaces/inkscape"
   xmlns:sodipodi="http://sodipodi.sourceforge.net/DTD/sodipodi-0.dtd"
   xmlns="http://www.w3.org/2000/svg"
   xmlns:svg="http://www.w3.org/2000/svg"><sodipodi:namedview
     id="namedview1"
     pagecolor="#ffffff"
     bordercolor="#000000"
     borderopacity="0.25"
     inkscape:showpageshadow="2"
     inkscape:pageopacity="0.0"
     inkscape:pagecheckerboard="0"
     inkscape:deskcolor="#d1d1d1"
     inkscape:document-units="mm"
     inkscape:export-bgcolor="#ffffff00"
     showguides="false"
     inkscape:zoom="2.352774"
     inkscape:cx="274.14448"
     inkscape:cy="151.73578"
     inkscape:window-width="1512"
     inkscape:window-height="945"
     inkscape:window-x="0"
     inkscape:window-y="37"
     inkscape:window-maximized="0"
     inkscape:current-layer="layer1"
     showgrid="false"><inkscape:page
       x="0"
       y="0"
       width="38.637589"
       height="17.756248"
       id="page2"
       margin="0"
       bleed="0" /></sodipodi:namedview><defs
     id="defs1"><clipPath
       clipPathUnits="userSpaceOnUse"
       id="clipPath3"><path
         style="fill:#cccccc;stroke:#000000;stroke-width:0.799999"
         d="m 41.885429,54.394592 c 11.246634,5.403157 28.33144,3.029671 37.800024,0.37803 0,0 -3.616562,8.14818 -7.325676,9.92001 -6.974431,3.33166 -16.288514,2.520618 -23.166157,-1.006517 -3.506224,-1.798136 -7.308191,-9.291523 -7.308191,-9.291523 z"
         id="path4"
         sodipodi:nodetypes="ccaac" /></clipPath></defs><g
     inkscape:label="Layer 1"
     inkscape:groupmode="layer"
     id="layer1"
     transform="translate(-124.06987,-58.352494)"><g
       id="g7"
       transform="translate(93.749682,-1.9216075)"><g
         id="g4"
         transform="translate(-0.33736695,0.22491168)"
         inkscape:export-filename="images/RoundHead/Mouths/smile_slant.svg"
         inkscape:export-xdpi="96"
         inkscape:export-ydpi="96"><path
           style="fill:#cccccc;stroke:#000000;stroke-width:0.799999"
           d="m 31.375197,61.063556 c 10.086151,7.312611 27.318706,8.095154 37.110448,7.197178 0,0 -5.028394,7.361225 -8.996472,8.434195 C 52.027798,78.712488 43.013256,76.23298 36.885538,71.521957 33.761626,69.120277 31.375197,61.063556 31.375197,61.063556 Z"
           id="path3"
           sodipodi:nodetypes="ccaac" /><ellipse
           style="fill:#999999;stroke:none;stroke-width:0.799999"
           id="path2"
           cx="60.836296"
           cy="66.693802"
           rx="5.3978834"
           ry="3.9359567"
           transform="rotate(10.402675,1.7968164,-0.7863653)"
           clip-path="url(#clipPath3)" /></g><path
         style="fill:#f2f2f2;stroke:none;stroke-width:0.799999"
         d="m 36.396734,64.769171 c 0.730339,0.27901 3.79615,1.44536 4.382033,1.674056 0.585883,0.228696 -1.963141,3.872306 -1.963141,3.872306 0,0 -3.149231,-5.825372 -2.418892,-5.546362 z"
         id="path6"
         sodipodi:nodetypes="zzcz" /><path
         style="fill:#f2f2f2;stroke:none;stroke-width:0.64855"
         d="m 57.297289,69.112708 c 1.851531,0.100896 3.097266,-0.03421 4.20126,0.106003 1.103994,0.140209 -1.51454,4.54985 -1.51454,4.54985 0,0 -4.53825,-4.75675 -2.68672,-4.655853 z"
         id="path7"
         sodipodi:nodetypes="zzcz" /></g></g></svg>
